# xmcd
#
# Track frame offsets:
#  150
#  10677
#  31194
#  49300
#  70300
#  94753
#  107203
#  129567
#  148440
#  168950
#  182741
#  197540
#  210982
#  230839
#  247276
#  268938
#  288812
#
# Disc length: 4127 seconds
#
# Revision: 2
# Processed by: cddbd v1.5.1PL0 Copyright (c) Steve Scherf et al.
# Submitted via: Collectorz.com_Music_Collector 6.9
#
DISCID=01101d11
DTITLE=Paul Oscher - Alone With the Blues
DYEAR=2004
DGENRE=Blues -  Blues Harmonica
TTITLE0=Walkin'
TTITLE1=That's Alright
TTITLE2=My Sweet Suzanne
TTITLE3=Standing at the Crossroads
TTITLE4=Alone With the Blues
TTITLE5=Glory, Glory
TTITLE6=Blues and Trouble
TTITLE7=Work That Stuff
TTITLE8=Juke Joint
TTITLE9=You're Still My Baby
TTITLE10=Anna Lee
TTITLE11=Louis Collins
TTITLE12=Early One Morning
TTITLE13=Old Ship of Zion
TTITLE14=Blues Before Sunrise
TTITLE15=Christmas Blues
TTITLE16=Giving Thanks
EXTD=
EXTT0=
EXTT1=
EXTT2=
EXTT3=
EXTT4=
EXTT5=
EXTT6=
EXTT7=
EXTT8=
EXTT9=
EXTT10=
EXTT11=
EXTT12=
EXTT13=
EXTT14=
EXTT15=
EXTT16=
PLAYORDER=
